<svg xmlns="http://www.w3.org/2000/svg" viewBox="0 0 158.33 100.11"><defs><style>.cls-1{fill:none;stroke:#000;stroke-linecap:round;stroke-linejoin:round;stroke-width:4px;}</style></defs><title>деньги</title><polyline class="cls-1" points="46 43.81 46 3 155.33 3 155.33 68.6 86.23 68.6"/><line class="cls-1" x1="3.73" y1="53.14" x2="44.84" y2="12.91"/><path class="cls-1" d="M39.14,64.17S69.67,44.34,71.79,43.61a11,11,0,0,1,6.71,0c7.89,2.06,10.17,11.3,3.21,17.64-2.26,2.06-19,12-19,12s-3,5-4.52,7.29-8.16,9.62-8.16,9.62-5.14,5.76-11.81,7.14-33.09.87-33.09.87" transform="translate(-2.17 -1.11)"/><line class="cls-1" x1="134.48" y1="14.52" x2="134.48" y2="55.91"/><path class="cls-1" d="M88.7,37A13.92,13.92,0,1,1,102.62,50.9" transform="translate(-2.17 -1.11)"/></svg>