<svg id="Layer_1" data-name="Layer 1" xmlns="http://www.w3.org/2000/svg" viewBox="0 0 94.09 102.96"><defs><style>.cls-1{fill:none;stroke:#000;stroke-miterlimit:10;stroke-width:5px;}</style></defs><title>девочка</title><path class="cls-1" d="M134.54,132.45l7.23-30.85a37.23,37.23,0,0,1,73,0h0L222,132.45a30.85,30.85,0,0,1-22.83,37h0a6,6,0,0,1-7.38-5.79v-11a1.84,1.84,0,0,1,.67-1.41A29.42,29.42,0,0,0,203,129.46l.29-14a3.14,3.14,0,0,0-1.7-2.86,29.92,29.92,0,0,1-12.37-11.17,2.61,2.61,0,0,0-3.91-.61c-12.84,11-23.7,12.16-29.31,11.84a2.54,2.54,0,0,0-2.69,2.39q0,.09,0,.18l.16,8.5v.13l.19.32a20.89,20.89,0,0,0,1.37,2c3.4,4.37,10.28,9.54,16.5,10.78a5.95,5.95,0,1,1,5.78,9.55,6.14,6.14,0,0,1-1.17.11,6,6,0,0,1-5.09-2.84c-5.6-.95-12.16-4.92-16.14-8.08l0,0-.51-.46a29.42,29.42,0,0,0,9.76,16,1.84,1.84,0,0,1,.67,1.46v11a6,6,0,0,1-7.4,5.83h0A30.85,30.85,0,0,1,134.54,132.45Z" transform="translate(-131.22 -69.2)"/></svg>